{
  "accessors": [
    {
      "bufferView": 2,
      "componentType": 5126,
      "count": 27895,
      "max": [
        12.284416198730469,
        36.75733947753906,
        8.95918083190918
      ],
      "min": [
        -12.556166648864746,
        -9.780426979064941,
        -0.23816755414009094
      ],
      "type": "VEC3"
    },
    {
      "bufferView": 2,
      "byteOffset": 334740,
      "componentType": 5126,
      "count": 27895,
      "max": [
        1.0,
        1.0,
        1.0
      ],
      "min": [
        -1.0,
        -1.0,
        -1.0
      ],
      "type": "VEC3"
    },
    {
      "bufferView": 1,
      "componentType": 5126,
      "count": 27895,
      "max": [
        0.9912177324295044,
        0.9683104753494263
      ],
      "min": [
        0.0018593142740428448,
        0.0018593142740428448
      ],
      "type": "VEC2"
    },
    {
      "bufferView": 0,
      "componentType": 5125,
      "count": 49371,
      "type": "SCALAR"
    },
    {
      "bufferView": 2,
      "byteOffset": 669480,
      "componentType": 5126,
      "count": 2135,
      "max": [
        3.1373071670532227,
        7.084120273590088,
        5.724081516265869
      ],
      "min": [
        -3.313626289367676,
        1.816528081893921,
        3.3884832859039307
      ],
      "type": "VEC3"
    },
    {
      "bufferView": 2,
      "byteOffset": 695100,
      "componentType": 5126,
      "count": 2135,
      "max": [
        1.0,
        1.0,
        1.0
      ],
      "min": [
        -1.0,
        -1.0,
        -1.0
      ],
      "type": "VEC3"
    },
    {
      "bufferView": 1,
      "byteOffset": 223160,
      "componentType": 5126,
      "count": 2135,
      "max": [
        0.9249759912490845,
        0.9770105481147766
      ],
      "min": [
        0.06473634392023087,
        0.1856565624475479
      ],
      "type": "VEC2"
    },
    {
      "bufferView": 0,
      "byteOffset": 197484,
      "componentType": 5125,
      "count": 2748,
      "type": "SCALAR"
    },
    {
      "bufferView": 2,
      "byteOffset": 720720,
      "componentType": 5126,
      "count": 960,
      "max": [
        1.3957124948501587,
        30.902843475341797,
        7.457320213317871
      ],
      "min": [
        -1.2469408512115479,
        28.237096786499023,
        4.254276275634766
      ],
      "type": "VEC3"
    },
    {
      "bufferView": 2,
      "byteOffset": 732240,
      "componentType": 5126,
      "count": 960,
      "max": [
        0.9996501803398132,
        1.0,
        1.0
      ],
      "min": [
        -0.9996501803398132,
        -1.0,
        -1.0
      ],
      "type": "VEC3"
    },
    {
      "bufferView": 1,
      "byteOffset": 240240,
      "componentType": 5126,
      "count": 960,
      "max": [
        0.3917340636253357,
        0.9363983273506165
      ],
      "min": [
        0.27813464403152466,
        0.17865702509880066
      ],
      "type": "VEC2"
    },
    {
      "bufferView": 0,
      "byteOffset": 208476,
      "componentType": 5125,
      "count": 1428,
      "type": "SCALAR"
    },
    {
      "bufferView": 2,
      "byteOffset": 743760,
      "componentType": 5126,
      "count": 4697,
      "max": [
        14.794466972351074,
        39.11913299560547,
        0.5006089210510254
      ],
      "min": [
        -15.132107734680176,
        -10.87960147857666,
        -0.2874257564544678
      ],
      "type": "VEC3"
    },
    {
      "bufferView": 2,
      "byteOffset": 800124,
      "componentType": 5126,
      "count": 4697,
      "max": [
        1.0,
        1.0,
        1.0
      ],
      "min": [
        -1.0,
        -1.0,
        -1.0
      ],
      "type": "VEC3"
    },
    {
      "bufferView": 1,
      "byteOffset": 247920,
      "componentType": 5126,
      "count": 4697,
      "max": [
        0.9874509572982788,
        0.9981407523155212
      ],
      "min": [
        0.0018593142740428448,
        0.0018593142740428448
      ],
      "type": "VEC2"
    },
    {
      "bufferView": 0,
      "byteOffset": 214188,
      "componentType": 5125,
      "count": 7614,
      "type": "SCALAR"
    },
    {
      "bufferView": 2,
      "byteOffset": 856488,
      "componentType": 5126,
      "count": 10793,
      "max": [
        12.947976112365723,
        21.44947052001953,
        6.494462490081787
      ],
      "min": [
        -11.937155723571777,
        -1.5014771223068237,
        -0.013975448906421661
      ],
      "type": "VEC3"
    },
    {
      "bufferView": 2,
      "byteOffset": 986004,
      "componentType": 5126,
      "count": 10793,
      "max": [
        1.0,
        0.9999126195907593,
        1.0
      ],
      "min": [
        -1.0,
        -0.999912440776825,
        -1.0
      ],
      "type": "VEC3"
    },
    {
      "bufferView": 1,
      "byteOffset": 285496,
      "componentType": 5126,
      "count": 10793,
      "max": [
        0.9739671349525452,
        0.9700428247451782
      ],
      "min": [
        0.0018593142740428448,
        0.0018593142740428448
      ],
      "type": "VEC2"
    },
    {
      "bufferView": 0,
      "byteOffset": 244644,
      "componentType": 5125,
      "count": 15552,
      "type": "SCALAR"
    },
    {
      "bufferView": 2,
      "byteOffset": 1115520,
      "componentType": 5126,
      "count": 12620,
      "max": [
        13.344321250915527,
        23.19086456298828,
        7.668217658996582
      ],
      "min": [
        -12.689051628112793,
        -3.9021968841552734,
        -0.24003183841705322
      ],
      "type": "VEC3"
    },
    {
      "bufferView": 2,
      "byteOffset": 1266960,
      "componentType": 5126,
      "count": 12620,
      "max": [
        0.9999437928199768,
        0.9999697208404541,
        1.0
      ],
      "min": [
        -0.9999673366546631,
        -0.999917209148407,
        -1.0
      ],
      "type": "VEC3"
    },
    {
      "bufferView": 1,
      "byteOffset": 371840,
      "componentType": 5126,
      "count": 12620,
      "max": [
        0.9858247637748718,
        0.9981407523155212
      ],
      "min": [
        0.0018593142740428448,
        0.0018593142740428448
      ],
      "type": "VEC2"
    },
    {
      "bufferView": 0,
      "byteOffset": 306852,
      "componentType": 5125,
      "count": 18444,
      "type": "SCALAR"
    },
    {
      "bufferView": 2,
      "byteOffset": 1418400,
      "componentType": 5126,
      "count": 157,
      "max": [
        -6.900854587554932,
        2.1654512882232666,
        1.4923171997070313
      ],
      "min": [
        -11.231757164001465,
        -2.1654512882232666,
        0.9936035871505737
      ],
      "type": "VEC3"
    },
    {
      "bufferView": 2,
      "byteOffset": 1420284,
      "componentType": 5126,
      "count": 157,
      "max": [
        0.9659256935119629,
        0.9659258723258972,
        0.9962679743766785
      ],
      "min": [
        -0.9659259915351868,
        -0.9659258723258972,
        -1.0
      ],
      "type": "VEC3"
    },
    {
      "bufferView": 1,
      "byteOffset": 472800,
      "componentType": 5126,
      "count": 157,
      "max": [
        0.5086570978164673,
        0.9929220676422119
      ],
      "min": [
        0.4877641499042511,
        0.9720292091369629
      ],
      "type": "VEC2"
    },
    {
      "bufferView": 0,
      "byteOffset": 380628,
      "componentType": 5125,
      "count": 222,
      "type": "SCALAR"
    },
    {
      "bufferView": 2,
      "byteOffset": 1422168,
      "componentType": 5126,
      "count": 186,
      "max": [
        14.794466972351074,
        39.11913299560547,
        0.016448140144348145
      ],
      "min": [
        -15.132107734680176,
        -10.87960147857666,
        0.016448140144348145
      ],
      "type": "VEC3"
    },
    {
      "bufferView": 2,
      "byteOffset": 1424400,
      "componentType": 5126,
      "count": 186,
      "max": [
        8.022378317207313e-10,
        0.0,
        1.0
      ],
      "min": [
        -6.844834143926448e-10,
        0.0,
        1.0
      ],
      "type": "VEC3"
    },
    {
      "bufferView": 1,
      "byteOffset": 474056,
      "componentType": 5126,
      "count": 186,
      "max": [
        0.2375381737947464,
        0.8562531471252441
      ],
      "min": [
        0.22281786799430847,
        0.841532826423645
      ],
      "type": "VEC2"
    },
    {
      "bufferView": 0,
      "byteOffset": 381516,
      "componentType": 5125,
      "count": 420,
      "type": "SCALAR"
    }
  ],
  "asset": {
    "extras": {
      "author": "Jen S Abbott (https://sketchfab.com/jsabbott)",
      "license": "CC-BY-4.0 (http://creativecommons.org/licenses/by/4.0/)",
      "source": "https://sketchfab.com/3d-models/temple-game-level-188586f1af9d493ca35728ef42b8c951",
      "title": "Temple Game Level"
    },
    "generator": "Sketchfab-13.40.0",
    "version": "2.0"
  },
  "bufferViews": [
    {
      "buffer": 0,
      "byteLength": 383196,
      "name": "floatBufferViews",
      "target": 34963
    },
    {
      "buffer": 0,
      "byteLength": 475544,
      "byteOffset": 383196,
      "byteStride": 8,
      "name": "floatBufferViews",
      "target": 34962
    },
    {
      "buffer": 0,
      "byteLength": 1426632,
      "byteOffset": 858740,
      "byteStride": 12,
      "name": "floatBufferViews",
      "target": 34962
    }
  ],
  "buffers": [
    {
      "byteLength": 2285372,
      "uri": "scene.bin"
    }
  ],
  "images": [
    {
      "uri": "textures/stone_baseColor.png"
    }
  ],
  "materials": [
    {
      "doubleSided": true,
      "name": "stone",
      "pbrMetallicRoughness": {
        "baseColorTexture": {
          "index": 0
        },
        "metallicFactor": 0.0,
        "roughnessFactor": 0.9932356737917662
      }
    },
    {
      "doubleSided": true,
      "name": "copper",
      "pbrMetallicRoughness": {
        "baseColorTexture": {
          "index": 0
        },
        "metallicFactor": 0.0,
        "roughnessFactor": 0.9089397849533762
      }
    },
    {
      "doubleSided": true,
      "name": "material",
      "pbrMetallicRoughness": {
        "baseColorTexture": {
          "index": 0
        },
        "metallicFactor": 0.0,
        "roughnessFactor": 0.8040408205773457
      }
    },
    {
      "doubleSided": true,
      "name": "grass",
      "pbrMetallicRoughness": {
        "baseColorTexture": {
          "index": 0
        },
        "metallicFactor": 0.0,
        "roughnessFactor": 0.9761386911842328
      }
    },
    {
      "doubleSided": true,
      "name": "wood",
      "pbrMetallicRoughness": {
        "baseColorTexture": {
          "index": 0
        },
        "metallicFactor": 0.0,
        "roughnessFactor": 0.987062893918
      }
    },
    {
      "doubleSided": true,
      "name": "leaves-bushes",
      "pbrMetallicRoughness": {
        "baseColorTexture": {
          "index": 0
        },
        "metallicFactor": 0.0,
        "roughnessFactor": 0.9757759399384527
      }
    },
    {
      "doubleSided": true,
      "name": "water",
      "pbrMetallicRoughness": {
        "baseColorTexture": {
          "index": 0
        },
        "metallicFactor": 0.0,
        "roughnessFactor": 0.7981408994408128
      }
    },
    {
      "doubleSided": true,
      "name": "dirt",
      "pbrMetallicRoughness": {
        "baseColorTexture": {
          "index": 0
        },
        "metallicFactor": 0.0,
        "roughnessFactor": 0.8582820318574014
      }
    }
  ],
  "meshes": [
    {
      "name": "temple-complex_stone_0",
      "primitives": [
        {
          "attributes": {
            "NORMAL": 1,
            "POSITION": 0,
            "TEXCOORD_0": 2
          },
          "indices": 3,
          "material": 0,
          "mode": 4
        }
      ]
    },
    {
      "name": "temple-complex_copper_0",
      "primitives": [
        {
          "attributes": {
            "NORMAL": 5,
            "POSITION": 4,
            "TEXCOORD_0": 6
          },
          "indices": 7,
          "material": 1,
          "mode": 4
        }
      ]
    },
    {
      "name": "temple-complex_egg_0",
      "primitives": [
        {
          "attributes": {
            "NORMAL": 9,
            "POSITION": 8,
            "TEXCOORD_0": 10
          },
          "indices": 11,
          "material": 2,
          "mode": 4
        }
      ]
    },
    {
      "name": "temple-complex_grass_0",
      "primitives": [
        {
          "attributes": {
            "NORMAL": 13,
            "POSITION": 12,
            "TEXCOORD_0": 14
          },
          "indices": 15,
          "material": 3,
          "mode": 4
        }
      ]
    },
    {
      "name": "temple-complex_wood_0",
      "primitives": [
        {
          "attributes": {
            "NORMAL": 17,
            "POSITION": 16,
            "TEXCOORD_0": 18
          },
          "indices": 19,
          "material": 4,
          "mode": 4
        }
      ]
    },
    {
      "name": "temple-complex_leaves-bushes_0",
      "primitives": [
        {
          "attributes": {
            "NORMAL": 21,
            "POSITION": 20,
            "TEXCOORD_0": 22
          },
          "indices": 23,
          "material": 5,
          "mode": 4
        }
      ]
    },
    {
      "name": "temple-complex_water_0",
      "primitives": [
        {
          "attributes": {
            "NORMAL": 25,
            "POSITION": 24,
            "TEXCOORD_0": 26
          },
          "indices": 27,
          "material": 6,
          "mode": 4
        }
      ]
    },
    {
      "name": "temple-complex_dirt_0",
      "primitives": [
        {
          "attributes": {
            "NORMAL": 29,
            "POSITION": 28,
            "TEXCOORD_0": 30
          },
          "indices": 31,
          "material": 7,
          "mode": 4
        }
      ]
    }
  ],
  "nodes": [
    {
      "children": [
        1
      ],
      "matrix": [
        1.0,
        0.0,
        0.0,
        0.0,
        0.0,
        2.220446049250313e-16,
        -1.0,
        0.0,
        0.0,
        1.0,
        2.220446049250313e-16,
        0.0,
        0.0,
        0.0,
        0.0,
        1.0
      ],
      "name": "Sketchfab_model"
    },
    {
      "children": [
        2
      ],
      "matrix": [
        1.0,
        0.0,
        0.0,
        0.0,
        0.0,
        0.0,
        1.0,
        0.0,
        0.0,
        -1.0,
        0.0,
        0.0,
        0.0,
        0.0,
        0.0,
        1.0
      ],
      "name": "73a1906313284806ac5929cd11faad75.fbx"
    },
    {
      "children": [
        3,
        12,
        14,
        17,
        20,
        23,
        26
      ],
      "name": "RootNode"
    },
    {
      "children": [
        4,
        5,
        6,
        7,
        8,
        9,
        10,
        11
      ],
      "matrix": [
        100.0,
        0.0,
        0.0,
        0.0,
        0.0,
        -1.629206793918314e-05,
        -99.99999999999868,
        0.0,
        0.0,
        99.99999999999868,
        -1.629206793918314e-05,
        0.0,
        0.0,
        0.0,
        0.0,
        1.0
      ],
      "name": "temple-complex"
    },
    {
      "mesh": 0,
      "name": "temple-complex_stone_0"
    },
    {
      "mesh": 1,
      "name": "temple-complex_copper_0"
    },
    {
      "mesh": 2,
      "name": "temple-complex_egg_0"
    },
    {
      "mesh": 3,
      "name": "temple-complex_grass_0"
    },
    {
      "mesh": 4,
      "name": "temple-complex_wood_0"
    },
    {
      "mesh": 5,
      "name": "temple-complex_leaves-bushes_0"
    },
    {
      "mesh": 6,
      "name": "temple-complex_water_0"
    },
    {
      "mesh": 7,
      "name": "temple-complex_dirt_0"
    },
    {
      "children": [
        13
      ],
      "matrix": [
        -65.15582336777447,
        -44.52712362019418,
        -61.417049289096546,
        0.0,
        -32.40134799923358,
        89.53957372084969,
        -30.542059290772883,
        0.0,
        68.59206462193663,
        2.166664404834595e-05,
        -72.76763477604308,
        0.0,
        6208.921875,
        4247.25439453125,
        4754.77734375,
        1.0
      ],
      "name": "Camera"
    },
    {
      "name": "Object_13"
    },
    {
      "children": [
        15
      ],
      "matrix": [
        -127.02021245521682,
        -10.452074812136434,
        -140.08579483168919,
        0.0,
        81.49380001010766,
        154.55440731744113,
        -85.42460735060264,
        0.0,
        116.77790434097271,
        -115.34320493151093,
        -97.28023051033063,
        0.0,
        2598.144287109375,
        4480.37744140625,
        -6845.87548828125,
        1.0
      ],
      "name": "Light"
    },
    {
      "children": [
        16
      ],
      "matrix": [
        1.0,
        0.0,
        0.0,
        0.0,
        0.0,
        2.220446049250313e-16,
        1.0,
        0.0,
        0.0,
        -1.0,
        2.220446049250313e-16,
        0.0,
        0.0,
        0.0,
        0.0,
        1.0
      ],
      "name": "Object_15"
    },
    {
      "name": "Object_16"
    },
    {
      "children": [
        18
      ],
      "matrix": [
        100.0,
        0.0,
        0.0,
        0.0,
        0.0,
        99.99999999999972,
        -7.5497901264043296e-06,
        0.0,
        0.0,
        7.5497901264043296e-06,
        99.99999999999972,
        0.0,
        280.3063049316406,
        388.0708312988281,
        -221.75628662109375,
        1.0
      ],
      "name": "Point"
    },
    {
      "children": [
        19
      ],
      "matrix": [
        1.0,
        0.0,
        0.0,
        0.0,
        0.0,
        2.220446049250313e-16,
        1.0,
        0.0,
        0.0,
        -1.0,
        2.220446049250313e-16,
        0.0,
        0.0,
        0.0,
        0.0,
        1.0
      ],
      "name": "Object_18"
    },
    {
      "name": "Object_19"
    },
    {
      "children": [
        21
      ],
      "matrix": [
        100.0,
        0.0,
        0.0,
        0.0,
        0.0,
        99.99999999999972,
        -7.5497901264043296e-06,
        0.0,
        0.0,
        7.5497901264043296e-06,
        99.99999999999972,
        0.0,
        -298.07672119140625,
        388.0708312988281,
        -217.9759979248047,
        1.0
      ],
      "name": "Point.001"
    },
    {
      "children": [
        22
      ],
      "matrix": [
        1.0,
        0.0,
        0.0,
        0.0,
        0.0,
        2.220446049250313e-16,
        1.0,
        0.0,
        0.0,
        -1.0,
        2.220446049250313e-16,
        0.0,
        0.0,
        0.0,
        0.0,
        1.0
      ],
      "name": "Object_21"
    },
    {
      "name": "Object_22"
    },
    {
      "children": [
        24
      ],
      "matrix": [
        100.0,
        0.0,
        0.0,
        0.0,
        0.0,
        99.99999999999972,
        -7.5497901264043296e-06,
        0.0,
        0.0,
        7.5497901264043296e-06,
        99.99999999999972,
        0.0,
        -223.25863647460938,
        563.3130493164063,
        -672.7437744140625,
        1.0
      ],
      "name": "Point.002"
    },
    {
      "children": [
        25
      ],
      "matrix": [
        1.0,
        0.0,
        0.0,
        0.0,
        0.0,
        2.220446049250313e-16,
        1.0,
        0.0,
        0.0,
        -1.0,
        2.220446049250313e-16,
        0.0,
        0.0,
        0.0,
        0.0,
        1.0
      ],
      "name": "Object_24"
    },
    {
      "name": "Object_25"
    },
    {
      "children": [
        27
      ],
      "matrix": [
        100.0,
        0.0,
        0.0,
        0.0,
        0.0,
        99.99999999999972,
        -7.5497901264043296e-06,
        0.0,
        0.0,
        7.5497901264043296e-06,
        99.99999999999972,
        0.0,
        231.95028686523438,
        563.3130493164063,
        -672.7437744140625,
        1.0
      ],
      "name": "Point.003"
    },
    {
      "children": [
        28
      ],
      "matrix": [
        1.0,
        0.0,
        0.0,
        0.0,
        0.0,
        2.220446049250313e-16,
        1.0,
        0.0,
        0.0,
        -1.0,
        2.220446049250313e-16,
        0.0,
        0.0,
        0.0,
        0.0,
        1.0
      ],
      "name": "Object_27"
    },
    {
      "name": "Object_28"
    }
  ],
  "samplers": [
    {
      "magFilter": 9729,
      "minFilter": 9987,
      "wrapS": 10497,
      "wrapT": 10497
    }
  ],
  "scene": 0,
  "scenes": [
    {
      "name": "Sketchfab_Scene",
      "nodes": [
        0
      ]
    }
  ],
  "textures": [
    {
      "sampler": 0,
      "source": 0
    }
  ]
}
