{
  "accessors": [
    {
      "bufferView": 2,
      "componentType": 5126,
      "count": 1022,
      "max": [
        5.0,
        5.0,
        1.0929522514343262
      ],
      "min": [
        -5.0,
        -5.000275135040283,
        0.0
      ],
      "type": "VEC3"
    },
    {
      "bufferView": 2,
      "byteOffset": 12264,
      "componentType": 5126,
      "count": 1022,
      "max": [
        1.0,
        1.0,
        0.9999983310699463
      ],
      "min": [
        -1.0,
        -1.0,
        -1.0
      ],
      "type": "VEC3"
    },
    {
      "bufferView": 1,
      "componentType": 5126,
      "count": 1022,
      "max": [
        0.8535575270652771,
        0.7663790583610535
      ],
      "min": [
        0.1897352635860443,
        0.4528852701187134
      ],
      "type": "VEC2"
    },
    {
      "bufferView": 0,
      "componentType": 5125,
      "count": 1770,
      "type": "SCALAR"
    },
    {
      "bufferView": 2,
      "byteOffset": 24528,
      "componentType": 5126,
      "count": 16,
      "max": [
        4.466015338897705,
        4.630908489227295,
        0.888609766960144
      ],
      "min": [
        1.8315600156784058,
        1.5842198133468628,
        0.888609766960144
      ],
      "type": "VEC3"
    },
    {
      "bufferView": 2,
      "byteOffset": 24720,
      "componentType": 5126,
      "count": 16,
      "max": [
        4.416773435877985e-08,
        0.0,
        1.0
      ],
      "min": [
        -1.0644391323921809e-07,
        0.0,
        1.0
      ],
      "type": "VEC3"
    },
    {
      "bufferView": 1,
      "byteOffset": 8176,
      "componentType": 5126,
      "count": 16,
      "max": [
        0.543292760848999,
        0.21187584102153778
      ],
      "min": [
        0.543292760848999,
        0.21187584102153778
      ],
      "type": "VEC2"
    },
    {
      "bufferView": 0,
      "byteOffset": 7080,
      "componentType": 5125,
      "count": 24,
      "type": "SCALAR"
    },
    {
      "bufferView": 2,
      "byteOffset": 24912,
      "componentType": 5126,
      "count": 1052,
      "max": [
        2.1122329235076904,
        -0.0128021240234375,
        3.466139316558838
      ],
      "min": [
        0.0049094557762146,
        -2.6409764289855957,
        -0.10127367824316025
      ],
      "type": "VEC3"
    },
    {
      "bufferView": 2,
      "byteOffset": 37536,
      "componentType": 5126,
      "count": 1052,
      "max": [
        0.9993952512741089,
        1.0,
        1.0
      ],
      "min": [
        -1.0,
        -0.9994174838066101,
        -0.28717467188835144
      ],
      "type": "VEC3"
    },
    {
      "bufferView": 1,
      "byteOffset": 8304,
      "componentType": 5126,
      "count": 1052,
      "max": [
        0.857427716255188,
        0.8142239451408386
      ],
      "min": [
        0.18030789494514465,
        0.15207654237747192
      ],
      "type": "VEC2"
    },
    {
      "bufferView": 0,
      "byteOffset": 7176,
      "componentType": 5125,
      "count": 1356,
      "type": "SCALAR"
    },
    {
      "bufferView": 2,
      "byteOffset": 50160,
      "componentType": 5126,
      "count": 806,
      "max": [
        8.783927917480469,
        5.94577693939209,
        12.459207534790039
      ],
      "min": [
        -8.783927917480469,
        -5.945775032043457,
        0.8619160652160645
      ],
      "type": "VEC3"
    },
    {
      "bufferView": 2,
      "byteOffset": 59832,
      "componentType": 5126,
      "count": 806,
      "max": [
        1.0,
        1.0,
        1.0
      ],
      "min": [
        -1.0,
        -1.0,
        -1.0
      ],
      "type": "VEC3"
    },
    {
      "bufferView": 1,
      "byteOffset": 16720,
      "componentType": 5126,
      "count": 806,
      "max": [
        0.19214043021202087,
        0.4492611885070801
      ],
      "min": [
        0.19214043021202087,
        0.4492611885070801
      ],
      "type": "VEC2"
    },
    {
      "bufferView": 0,
      "byteOffset": 12600,
      "componentType": 5125,
      "count": 1266,
      "type": "SCALAR"
    },
    {
      "bufferView": 2,
      "byteOffset": 69504,
      "componentType": 5126,
      "count": 2271,
      "max": [
        1.9900922775268555,
        0.21518391370773315,
        2.23895263671875
      ],
      "min": [
        -3.4217617511749268,
        -6.100642204284668,
        -2.1114447116851807
      ],
      "type": "VEC3"
    },
    {
      "bufferView": 2,
      "byteOffset": 96756,
      "componentType": 5126,
      "count": 2271,
      "max": [
        0.9988227486610413,
        0.9988224506378174,
        0.37945839762687683
      ],
      "min": [
        -0.999777615070343,
        -0.9988225102424622,
        -0.9739830493927002
      ],
      "type": "VEC3"
    },
    {
      "bufferView": 1,
      "byteOffset": 23168,
      "componentType": 5126,
      "count": 2271,
      "max": [
        0.9352647066116333,
        0.9312801361083984
      ],
      "min": [
        0.49993205070495605,
        0.4583216607570648
      ],
      "type": "VEC2"
    },
    {
      "bufferView": 0,
      "byteOffset": 17664,
      "componentType": 5125,
      "count": 3183,
      "type": "SCALAR"
    },
    {
      "bufferView": 2,
      "byteOffset": 124008,
      "componentType": 5126,
      "count": 1260,
      "max": [
        6.180299758911133,
        10.76926040649414,
        3.7898716926574707
      ],
      "min": [
        -8.953814506530762,
        -4.409053325653076,
        -1.3202893733978271
      ],
      "type": "VEC3"
    },
    {
      "bufferView": 2,
      "byteOffset": 139128,
      "componentType": 5126,
      "count": 1260,
      "max": [
        0.9957752823829651,
        0.9993363618850708,
        0.9928957223892212
      ],
      "min": [
        -0.9995043873786926,
        -0.9960699081420898,
        -0.9998879432678223
      ],
      "type": "VEC3"
    },
    {
      "bufferView": 1,
      "byteOffset": 41336,
      "componentType": 5126,
      "count": 1260,
      "max": [
        0.1753043532371521,
        0.17276744544506073
      ],
      "min": [
        0.1753043532371521,
        0.17276744544506073
      ],
      "type": "VEC2"
    },
    {
      "bufferView": 0,
      "byteOffset": 30396,
      "componentType": 5125,
      "count": 1260,
      "type": "SCALAR"
    },
    {
      "bufferView": 2,
      "byteOffset": 154248,
      "componentType": 5126,
      "count": 336,
      "max": [
        0.834940493106842,
        1.2149903774261475,
        1.4605319499969482
      ],
      "min": [
        -0.8818631172180176,
        -1.7761154174804688,
        -2.1929540634155273
      ],
      "type": "VEC3"
    },
    {
      "bufferView": 2,
      "byteOffset": 158280,
      "componentType": 5126,
      "count": 336,
      "max": [
        1.0,
        1.0,
        1.0
      ],
      "min": [
        -1.0,
        -1.0,
        -1.0
      ],
      "type": "VEC3"
    },
    {
      "bufferView": 1,
      "byteOffset": 51416,
      "componentType": 5126,
      "count": 336,
      "max": [
        0.5076358318328857,
        0.5747898817062378
      ],
      "min": [
        0.507635772228241,
        0.5747897624969482
      ],
      "type": "VEC2"
    },
    {
      "bufferView": 0,
      "byteOffset": 35436,
      "componentType": 5125,
      "count": 504,
      "type": "SCALAR"
    }
  ],
  "asset": {
    "extras": {
      "author": "Emma-Lie Kamping (https://sketchfab.com/Ellemieke25)",
      "license": "CC-BY-4.0 (http://creativecommons.org/licenses/by/4.0/)",
      "source": "https://sketchfab.com/3d-models/low-poly-temple-diorama-2279ba5c0c6a4947ad912a860881ef5c",
      "title": "Low Poly Temple Diorama"
    },
    "generator": "Sketchfab-12.65.0",
    "version": "2.0"
  },
  "bufferViews": [
    {
      "buffer": 0,
      "byteLength": 37452,
      "name": "floatBufferViews",
      "target": 34963
    },
    {
      "buffer": 0,
      "byteLength": 54104,
      "byteOffset": 37452,
      "byteStride": 8,
      "name": "floatBufferViews",
      "target": 34962
    },
    {
      "buffer": 0,
      "byteLength": 162312,
      "byteOffset": 91556,
      "byteStride": 12,
      "name": "floatBufferViews",
      "target": 34962
    }
  ],
  "buffers": [
    {
      "byteLength": 253868,
      "uri": "scene.bin"
    }
  ],
  "extensionsUsed": [
    "KHR_materials_transmission"
  ],
  "images": [
    {
      "uri": "textures/Templescene_baseColor.png"
    }
  ],
  "materials": [
    {
      "doubleSided": true,
      "name": "Templescene",
      "pbrMetallicRoughness": {
        "baseColorTexture": {
          "index": 0
        },
        "metallicFactor": 0.0,
        "roughnessFactor": 0.85
      }
    },
    {
      "alphaMode": "BLEND",
      "doubleSided": true,
      "extensions": {
        "KHR_materials_transmission": {
          "transmissionFactor": 0.6168417047041301
        }
      },
      "name": "Material",
      "pbrMetallicRoughness": {
        "baseColorFactor": [
          0.004571597346173302,
          0.12142742482489738,
          0.20794923268603238,
          0.38315829529586987
        ],
        "baseColorTexture": {
          "index": 0
        },
        "metallicFactor": 0.0,
        "roughnessFactor": 0.10808952810407191
      }
    },
    {
      "doubleSided": true,
      "name": "Temple",
      "pbrMetallicRoughness": {
        "baseColorFactor": [
          0.8490719999999998,
          0.6627150000000004,
          0.415534,
          1.0
        ],
        "metallicFactor": 0.0,
        "roughnessFactor": 0.85
      }
    }
  ],
  "meshes": [
    {
      "name": "Base_Templescene_0",
      "primitives": [
        {
          "attributes": {
            "NORMAL": 1,
            "POSITION": 0,
            "TEXCOORD_0": 2
          },
          "indices": 3,
          "material": 0,
          "mode": 4
        }
      ]
    },
    {
      "name": "Base_Material_0",
      "primitives": [
        {
          "attributes": {
            "NORMAL": 5,
            "POSITION": 4,
            "TEXCOORD_0": 6
          },
          "indices": 7,
          "material": 1,
          "mode": 4
        }
      ]
    },
    {
      "name": "Hill_Templescene_0",
      "primitives": [
        {
          "attributes": {
            "NORMAL": 9,
            "POSITION": 8,
            "TEXCOORD_0": 10
          },
          "indices": 11,
          "material": 0,
          "mode": 4
        }
      ]
    },
    {
      "name": "Temple_Temple_0",
      "primitives": [
        {
          "attributes": {
            "NORMAL": 13,
            "POSITION": 12,
            "TEXCOORD_0": 14
          },
          "indices": 15,
          "material": 2,
          "mode": 4
        }
      ]
    },
    {
      "name": "Cypresses_Templescene_0",
      "primitives": [
        {
          "attributes": {
            "NORMAL": 17,
            "POSITION": 16,
            "TEXCOORD_0": 18
          },
          "indices": 19,
          "material": 0,
          "mode": 4
        }
      ]
    },
    {
      "name": "Rocks_Templescene_0",
      "primitives": [
        {
          "attributes": {
            "NORMAL": 21,
            "POSITION": 20,
            "TEXCOORD_0": 22
          },
          "indices": 23,
          "material": 0,
          "mode": 4
        }
      ]
    },
    {
      "name": "Stairs_Temple_0",
      "primitives": [
        {
          "attributes": {
            "NORMAL": 25,
            "POSITION": 24,
            "TEXCOORD_0": 26
          },
          "indices": 27,
          "material": 2,
          "mode": 4
        }
      ]
    }
  ],
  "nodes": [
    {
      "children": [
        1
      ],
      "matrix": [
        0.6987671852111816,
        -0.00017001498781626164,
        0.7153491377830505,
        0.0,
        0.7153473496437073,
        -0.002085389336570942,
        -0.6987659335136414,
        0.0,
        0.0016105821123346686,
        0.9999977946281433,
        -0.0013355819974092409,
        0.0,
        -5.575207233428955,
        -35.48393249511719,
        15.503959655761712,
        1.0
      ],
      "name": "Sketchfab_model"
    },
    {
      "children": [
        2
      ],
      "matrix": [
        1.0,
        0.0,
        0.0,
        0.0,
        0.0,
        0.0,
        1.0,
        0.0,
        0.0,
        -1.0,
        0.0,
        0.0,
        0.0,
        0.0,
        0.0,
        1.0
      ],
      "name": "25bdf0a716b242b19887640e367defa1.fbx"
    },
    {
      "children": [
        3,
        6,
        8,
        10,
        12,
        14
      ],
      "name": "RootNode"
    },
    {
      "children": [
        4,
        5
      ],
      "matrix": [
        100.0,
        0.0,
        0.0,
        0.0,
        0.0,
        -1.629206793918314e-05,
        -99.99999999999868,
        0.0,
        0.0,
        99.99999999999868,
        -1.629206793918314e-05,
        0.0,
        0.0,
        0.0,
        0.0,
        1.0
      ],
      "name": "Base"
    },
    {
      "mesh": 0,
      "name": "Base_Templescene_0"
    },
    {
      "mesh": 1,
      "name": "Base_Material_0"
    },
    {
      "children": [
        7
      ],
      "matrix": [
        322.6392822265625,
        0.0,
        0.0,
        0.0,
        -0.0,
        -5.25646110588444e-05,
        -322.63928222655824,
        0.0,
        0.0,
        99.99999999999868,
        -1.629206793918314e-05,
        0.0,
        -500.0,
        100.0,
        -500.0,
        1.0
      ],
      "name": "Hill"
    },
    {
      "mesh": 2,
      "name": "Hill_Templescene_0"
    },
    {
      "children": [
        9
      ],
      "matrix": [
        1.8096510466895707e-06,
        0.0,
        -23.96955490112298,
        0.0,
        -23.969554901122024,
        -6.762529785144405e-06,
        -1.8096510466895707e-06,
        0.0,
        -6.762529785144405e-06,
        23.969554901122095,
        -5.109417934318766e-13,
        0.0,
        -272.1800231933594,
        424.2887878417969,
        -187.80421447753906,
        1.0
      ],
      "name": "Temple"
    },
    {
      "mesh": 3,
      "name": "Temple_Temple_0"
    },
    {
      "children": [
        11
      ],
      "matrix": [
        142.92507934570313,
        0.0,
        0.0,
        0.0,
        0.0,
        -2.3285451029133365e-05,
        -142.92507934570125,
        0.0,
        0.0,
        99.99999999999868,
        -1.629206793918314e-05,
        0.0,
        30.926782608032227,
        304.846923828125,
        -386.2824401855469,
        1.0
      ],
      "name": "Cypresses"
    },
    {
      "mesh": 4,
      "name": "Cypresses_Templescene_0"
    },
    {
      "children": [
        13
      ],
      "matrix": [
        68.75055694580078,
        0.0,
        0.0,
        0.0,
        0.0,
        -1.1200887446176657e-05,
        -68.75055694579987,
        0.0,
        0.0,
        68.75055694579987,
        -1.1200887446176657e-05,
        0.0,
        101.2510986328125,
        92.67012786865234,
        217.199951171875,
        1.0
      ],
      "name": "Rocks"
    },
    {
      "mesh": 5,
      "name": "Rocks_Templescene_0"
    },
    {
      "children": [
        15
      ],
      "matrix": [
        82.37547302246094,
        0.0,
        0.0,
        0.0,
        -0.0,
        -1.629206793918314e-05,
        -99.99999999999868,
        0.0,
        0.0,
        99.99999999999868,
        -1.629206793918314e-05,
        0.0,
        -257.9636535644531,
        300.5022888183594,
        143.2831268310547,
        1.0
      ],
      "name": "Stairs"
    },
    {
      "mesh": 6,
      "name": "Stairs_Temple_0"
    }
  ],
  "samplers": [
    {
      "magFilter": 9729,
      "minFilter": 9987,
      "wrapS": 10497,
      "wrapT": 10497
    }
  ],
  "scene": 0,
  "scenes": [
    {
      "name": "Sketchfab_Scene",
      "nodes": [
        0
      ]
    }
  ],
  "textures": [
    {
      "sampler": 0,
      "source": 0
    }
  ]
}
